HIERARCHY
ROOT Hips
{
	OFFSET -3.958830 18.904000 13.208200
	CHANNELS 6 Xposition Yposition Zposition Zrotation Yrotation Xrotation 
	JOINT LHipJoint
	{
		OFFSET 0.000000 0.000000 0.000000
		CHANNELS 3 Zrotation Yrotation Xrotation
		JOINT LeftUpLeg
		{
			OFFSET 1.800000 -1.400000 0.085000
			CHANNELS 3 Zrotation Yrotation Xrotation
			JOINT LeftLeg
			{
				OFFSET 2.215000 -6.000000 0.000000
				CHANNELS 3 Zrotation Yrotation Xrotation
				JOINT LeftFoot
				{
					OFFSET 2.500000 -6.900000 0.000000
					CHANNELS 3 Zrotation Yrotation Xrotation
					JOINT LeftToeBase
					{
						OFFSET 0.200000 -0.500000 1.950000
						CHANNELS 3 Zrotation Yrotation Xrotation
						End Site
						{
							OFFSET 0.000000 0.000000 0.000000
						}
					}
				}
			}
		}
	}
	JOINT RHipJoint
	{
		OFFSET 0.000000 0.000000 0.000000
		CHANNELS 3 Zrotation Yrotation Xrotation
		JOINT RightUpLeg
		{
			OFFSET -1.800000 -1.400000 0.085000
			CHANNELS 3 Zrotation Yrotation Xrotation
			JOINT RightLeg
			{
				OFFSET -2.215000 -6.000000 0.000000
				CHANNELS 3 Zrotation Yrotation Xrotation
				JOINT RightFoot
				{
					OFFSET -2.500000 -6.900000 0.000000
					CHANNELS 3 Zrotation Yrotation Xrotation
					JOINT RightToeBase
					{
						OFFSET -0.200000 -0.500000 1.950000
						CHANNELS 3 Zrotation Yrotation Xrotation
						End Site
						{
							OFFSET 0.000000 0.000000 0.000000
						}
					}
				}
			}
		}
	}
	JOINT LowerBack
	{
		OFFSET 0.000000 0.000000 0.000000
		CHANNELS 3 Zrotation Yrotation Xrotation
		JOINT Spine
		{
			OFFSET -0.087000 1.940000 -0.288900
			CHANNELS 3 Zrotation Yrotation Xrotation
			JOINT Spine1
			{
				OFFSET 0.000000 1.950000 0.060000
				CHANNELS 3 Zrotation Yrotation Xrotation
				JOINT Neck
				{
					OFFSET 0.000000 0.000000 0.000000
					CHANNELS 3 Zrotation Yrotation Xrotation
					JOINT Neck1
					{
						OFFSET 0.000000 1.600000 0.340000
						CHANNELS 3 Zrotation Yrotation Xrotation
						JOINT Head
						{
							OFFSET 0.000000 1.667000 -0.240000
							CHANNELS 3 Zrotation Yrotation Xrotation
							End Site
							{
								OFFSET 0.000000 0.000000 0.000000
							}
						}
					}
				}
				JOINT LeftShoulder
				{
					OFFSET 0.000000 0.000000 0.000000
					CHANNELS 3 Zrotation Yrotation Xrotation
					JOINT LeftArm
					{
						OFFSET 2.700000 1.550000 -0.730000
						CHANNELS 3 Zrotation Yrotation Xrotation
						JOINT LeftForeArm
						{
							OFFSET 5.450000 0.000000 0.000000
							CHANNELS 3 Zrotation Yrotation Xrotation
							JOINT LeftHand
							{
								OFFSET 3.450000 0.000000 0.000000
								CHANNELS 3 Zrotation Yrotation Xrotation
								JOINT LeftHandIndex1
								{
									OFFSET 0.750000 0.000000 0.000000
									CHANNELS 3 Zrotation Yrotation Xrotation
									End Site
									{
										OFFSET 0.000000 0.000000 0.000000
									}
								}
							}
						}
					}
				}
				JOINT RightShoulder
				{
					OFFSET 0.000000 0.000000 0.000000
					CHANNELS 3 Zrotation Yrotation Xrotation
					JOINT RightArm
					{
						OFFSET -2.700000 1.550000 -0.730000
						CHANNELS 3 Zrotation Yrotation Xrotation
						JOINT RightForeArm
						{
							OFFSET -5.450000 0.000000 0.000000
							CHANNELS 3 Zrotation Yrotation Xrotation
							JOINT RightHand
							{
								OFFSET -3.450000 0.000000 0.000000
								CHANNELS 3 Zrotation Yrotation Xrotation
								JOINT RightHandIndex1
								{
									OFFSET -0.750000 0.000000 0.000000
									CHANNELS 3 Zrotation Yrotation Xrotation
									End Site
									{
										OFFSET 0.000000 0.000000 0.000000
									}
								}
							}
						}
					}
				}
			}
		}
	}
}
MOTION
Frames: 9
Frame Time: 0.016667
-0.437210 15.817010 0.620000 -14.213612 44.969688 -14.855655 -15.753733 12.690801 4.078848 16.928890 -3.073485 -23.388039 -20.249755 15.319310 30.513962 0.507497 8.363896 1.499776 0.306980 0.166830 0.140770 17.747954 -10.744338 1.982588 -3.564202 1.548179 -10.627949 2.661354 -8.137778 39.108842 -0.601754 -6.049043 2.252552 0.200170 0.100980 0.075170 -2.410436 -1.563718 -7.488544 -3.679749 4.808456 14.940762 8.519774 5.081864 6.173575 1.295855 7.617896 -6.760346 10.542895 -14.378511 35.708516 7.413920 -13.446440 -6.650220 -22.607973 -4.098991 2.014337 -32.210323 -2.494933 -4.498227 -41.370724 -64.861338 23.875619 -3.589822 3.568715 0.165940 0.015480 -0.039240 0.134080 21.656242 2.457954 3.522183 26.016559 -4.423930 -8.799763 18.529219 50.003352 6.157854 2.154835 -1.755189 -0.064710 0.143660 -0.053720 -0.042160 
-0.458670 15.805590 0.640850 -14.182857 45.007066 -14.983517 -15.775888 12.593550 4.218481 18.072826 -3.059322 -24.139512 -21.036585 16.154335 31.576743 0.588478 8.736553 1.371260 0.296710 0.154440 0.137640 17.752939 -10.672039 1.928868 -3.594763 1.337362 -9.717204 2.975591 -8.191719 38.355601 -0.596064 -5.995881 2.279435 0.188550 0.099350 0.068040 -2.294520 -1.618114 -7.514127 -4.674092 5.206927 14.943375 9.093562 5.425592 6.003769 1.127745 7.840703 -6.856498 10.872559 -14.602698 36.253522 7.728040 -13.602480 -6.254840 -22.872353 -4.238420 2.136098 -31.931519 -2.096715 -4.547705 -42.762298 -65.346732 24.983151 -3.587899 3.567736 0.169670 0.010320 -0.037920 0.131750 22.321930 2.631448 3.666000 26.592215 -4.917764 -9.046985 17.369899 48.643369 5.461268 2.156696 -1.735302 -0.066900 0.143700 -0.053480 -0.042140 
-0.506070 15.772190 0.669290 -13.839587 44.327593 -14.978506 -15.827023 12.333894 4.566377 20.601144 -2.980195 -26.353537 -22.466007 18.210569 34.573886 0.763590 9.631315 1.063155 0.299540 0.155080 0.147680 17.773685 -10.493696 1.793742 -4.341074 0.914895 -7.748126 4.327753 -8.603568 36.573249 -0.599677 -5.936199 2.309657 0.183680 0.086700 0.061350 -2.051758 -1.717329 -7.590099 -6.443218 6.398151 15.291035 10.299475 6.621354 5.344855 0.904696 8.187333 -6.627624 11.320454 -15.210063 36.667377 8.358760 -13.925960 -6.481850 -24.127363 -3.741075 2.047070 -31.803781 -0.994394 -4.691901 -46.177725 -66.793162 27.868783 -3.585924 3.570452 0.187540 -0.005470 -0.024260 0.128280 24.134653 2.477719 3.746836 27.259877 -6.378978 -9.659930 14.409958 46.007589 3.952996 2.144139 -1.709817 -0.067750 0.147340 -0.058070 -0.046500 
-0.547540 15.730640 0.709380 -13.034098 43.333952 -14.581683 -15.877143 11.905679 5.003906 23.471465 -2.832603 -28.979273 -24.403502 21.274295 38.719830 1.039287 10.818276 0.680332 0.300170 0.153460 0.156780 17.828375 -10.295629 1.613795 -5.767002 0.349031 -5.483520 6.254648 -9.105487 33.724761 -0.597907 -5.839277 2.349138 0.169880 0.062760 0.062420 -1.878318 -1.622812 -7.681293 -8.383596 7.979283 14.918995 11.357673 8.061406 4.950248 0.641654 8.666771 -6.774193 12.161549 -15.681724 37.406702 9.113690 -13.927850 -6.385950 -24.345833 -3.470235 2.113209 -32.766831 -0.357756 -4.923404 -48.562470 -67.164698 29.626025 -3.569999 3.576595 0.207960 -0.024500 -0.002200 0.121560 24.941179 2.401856 4.121730 29.470281 -7.842850 -9.970886 11.069223 41.297910 2.367382 2.153794 -1.644984 -0.058960 0.132770 -0.063310 -0.052700 
-0.589940 15.686890 0.733780 -12.380235 42.152253 -14.511350 -15.924536 11.510088 5.429797 26.217363 -2.601726 -31.364207 -25.634410 24.610707 43.554549 1.327585 12.006795 0.325042 0.295780 0.145030 0.169310 17.876591 -10.095522 1.473660 -7.095950 0.001424 -3.709428 7.932623 -9.689712 32.125918 -0.627985 -5.884093 2.336950 0.154600 0.041330 0.056890 -1.736349 -1.542715 -7.828976 -9.755831 9.474892 15.281293 11.965245 9.560277 4.182271 0.489457 9.000086 -6.835250 12.727786 -16.050616 38.374469 10.180160 -13.916400 -6.707400 -25.201223 -3.139265 2.048460 -33.347958 0.580778 -5.236680 -50.892937 -67.547082 31.380120 -3.556517 3.559488 0.241560 -0.048570 0.023030 0.109090 26.140412 2.391460 4.526960 31.003386 -9.756713 -10.256264 10.200225 37.884788 1.774497 2.162618 -1.595864 -0.060600 0.132390 -0.063170 -0.062920 
-0.621620 15.634640 0.772530 -12.219048 41.033523 -14.462511 -15.968187 11.222020 5.693909 28.716908 -2.190289 -33.049520 -24.772603 27.011582 48.373729 1.542308 12.888020 0.078189 0.289570 0.139290 0.163940 17.913886 -9.928986 1.396140 -7.983690 -0.394214 -2.138283 9.579477 -10.165074 30.352464 -0.649286 -5.924314 2.330033 0.144070 0.033400 0.052570 -1.631074 -1.487347 -7.923628 -10.669059 10.629854 14.996685 12.872448 10.753683 3.430427 0.222243 8.957381 -6.526469 12.383786 -16.386473 38.772387 10.759400 -14.278280 -6.647590 -25.923204 -2.112394 1.779073 -34.585136 1.268120 -5.342946 -52.893210 -68.098930 33.114249 -3.549944 3.562686 0.248140 -0.059960 0.029700 0.106180 27.503867 1.836010 4.674303 32.216356 -11.845682 -10.286229 8.006400 33.819450 0.967500 2.175751 -1.561162 -0.056630 0.127370 -0.062890 -0.060860 
-0.657340 15.590950 0.787250 -11.532984 39.955158 -14.310362 -16.004642 11.115535 5.842848 29.862933 -2.248907 -34.688171 -21.397875 28.405599 54.780616 1.746338 13.656501 -0.125118 0.295600 0.152410 0.154530 17.909558 -9.842577 1.353566 -9.119011 -0.573332 -1.258368 10.770269 -10.665723 29.803600 -0.685449 -6.029268 2.298404 0.135140 0.017880 0.041850 -1.526693 -1.542227 -8.031127 -11.375213 11.489126 15.378636 13.688477 11.700288 2.743232 -0.205493 8.091539 -6.221860 10.256046 -16.069970 40.588063 11.658250 -14.925730 -6.778090 -26.469869 -1.050791 1.551918 -36.622739 2.204829 -5.966115 -52.899514 -68.394808 33.163569 -3.503930 3.565092 0.257390 -0.088680 0.047050 0.114500 29.016956 1.874207 4.813582 32.589946 -13.004255 -9.603953 6.678404 28.186870 0.485770 2.222337 -1.503086 -0.040980 0.125400 -0.073830 -0.046970 
-0.677970 15.546650 0.799460 -11.141180 38.839001 -14.279900 -16.022694 11.173006 5.784849 30.060317 -2.356422 -35.580553 -16.272316 27.956625 60.626750 1.856990 14.079559 -0.219568 0.276140 0.135470 0.115590 17.885083 -9.860654 1.364174 -10.096588 -0.545637 -1.227546 11.671767 -11.194289 30.170432 -0.703469 -6.190164 2.251132 0.118140 0.039620 0.028030 -1.491889 -1.564546 -8.085590 -11.318308 11.956508 15.594006 14.118424 12.401980 2.008046 -0.618445 6.973184 -5.670741 7.643516 -15.473487 41.906912 12.320060 -15.837950 -6.088690 -27.069705 0.415483 1.152089 -38.366768 3.065451 -6.427923 -52.687589 -68.651830 33.120073 -3.481644 3.573674 0.242680 -0.094210 0.032600 0.129810 30.527379 1.555866 4.738636 32.571193 -14.054096 -8.904710 4.990314 23.591975 0.113868 2.272530 -1.459426 -0.038730 0.132950 -0.069920 -0.022410 
-0.698270 15.507850 0.816080 -11.080068 37.251448 -13.741851 -16.039634 11.231993 5.652553 30.379516 -2.006130 -36.205890 -11.420520 26.649028 64.811532 1.893333 14.215703 -0.238824 0.236450 0.097760 0.055710 17.871565 -9.881215 1.405630 -10.572892 -0.882388 -0.237929 12.371068 -10.957673 27.767591 -0.656444 -6.058028 2.317361 0.095350 0.080000 0.016830 -1.495593 -1.539633 -8.086286 -11.194872 12.191183 14.919783 14.824114 12.780318 1.604927 -1.199610 5.674894 -5.017190 4.923887 -14.620522 42.052812 12.795100 -16.670080 -5.324670 -26.647747 2.573910 1.068107 -40.421772 4.928757 -6.761435 -55.891023 -69.707722 35.959843 -3.483765 3.602876 0.215320 -0.082910 -0.000440 0.140710 31.303776 0.646335 4.269728 32.590392 -14.632448 -8.447444 3.434603 20.515255 -0.095652 2.318648 -1.423458 -0.043830 0.140500 -0.049880 0.004910 
